<?xml version="1.0" encoding="UTF-8" standalone="no"?>
<!-- Created with Inkscape (http://www.inkscape.org/) -->

<svg
   width="60mm"
   height="42mm"
   viewBox="0 0 60 41.999999"
   version="1.1"
   id="svg5"
   xml:space="preserve"
   inkscape:version="1.2.2 (b0a8486541, 2022-12-01)"
   sodipodi:docname="pspad.svg"
   xmlns:inkscape="http://www.inkscape.org/namespaces/inkscape"
   xmlns:sodipodi="http://sodipodi.sourceforge.net/DTD/sodipodi-0.dtd"
   xmlns="http://www.w3.org/2000/svg"
   xmlns:svg="http://www.w3.org/2000/svg"><sodipodi:namedview
     id="namedview7"
     pagecolor="#ffffff"
     bordercolor="#000000"
     borderopacity="0.25"
     inkscape:showpageshadow="2"
     inkscape:pageopacity="0.0"
     inkscape:pagecheckerboard="0"
     inkscape:deskcolor="#d1d1d1"
     inkscape:document-units="mm"
     showgrid="false"
     inkscape:zoom="2.1305258"
     inkscape:cx="47.406138"
     inkscape:cy="-7.2751994"
     inkscape:window-width="1478"
     inkscape:window-height="1303"
     inkscape:window-x="26"
     inkscape:window-y="23"
     inkscape:window-maximized="0"
     inkscape:current-layer="layer1" /><defs
     id="defs2" /><g
     inkscape:label="Layer 1"
     inkscape:groupmode="layer"
     id="layer1"><path
       style="fill:#d7d7d7;fill-opacity:1;stroke:#d7d7d7;stroke-width:0.105085;stroke-opacity:1"
       d="M 6.2770712,41.473166 C 3.9878943,41.062647 3.193694,40.741873 2.4208668,39.915656 0.68560228,38.06052 -0.19278862,33.821338 0.11273393,28.776449 0.56737905,21.269201 2.2603799,14.185884 5.1416245,7.7361555 6.2256876,5.3094539 6.5739827,4.7937552 7.1288825,4.7937552 7.651571,4.7086686 10.39536,4.1974897 11.593966,3.9557736 l 4.088249,-0.5777492 0.394072,-0.097602 C 17.50207,3.1503761 22.748634,2.6181629 26.694051,2.4793069 31.882855,2.2966902 39.892398,2.6703158 43.871434,3.2805936 l 0.394072,0.060438 2.713303,0.3569363 c 2.145423,0.4332096 3.178798,0.6558098 4.647289,0.8853128 0.485391,0.1036903 1.017215,0.2104745 1.20264,0.2104745 0.472788,0 0.687357,0.2633383 1.403593,1.7226073 3.489126,9.3417515 6.982848,19.5990285 5.262004,28.8242855 -0.515254,2.669979 -1.623795,4.676017 -2.957438,5.351825 -0.96219,0.487579 -4.261471,1.120499 -4.945714,0.948765 -0.970225,-0.243511 -1.917421,-1.987097 -3.209639,-5.908253 -1.495797,-4.538909 -2.833718,-6.799962 -4.533329,-7.661218 -0.78474,-0.397662 -1.450654,-0.441741 -2.599337,-0.172063 -0.934487,0.219395 -1.119737,0.223057 -11.275016,0.223057 -10.155279,0 -10.340529,-0.0036 -11.27502,-0.223057 -1.148679,-0.269678 -1.814593,-0.225599 -2.599337,0.172063 -1.698295,0.860589 -3.033463,3.115791 -4.535739,7.661218 -1.197513,3.623295 -2.0682211,5.346542 -2.9254399,5.789828 -0.3865468,0.199894 -1.047232,0.186001 -2.3612739,-0.04965 z"
       id="path302"
       sodipodi:nodetypes="csssccccsscccsccsssssscssscc"
       inkscape:label="joystickshape" /><g
       id="g944"
       inkscape:label="triggers"
       style="fill:#bbbbbb;fill-opacity:1;stroke:#000000;stroke-width:1.25889;stroke-dasharray:none;stroke-opacity:1"
       transform="matrix(0.39717404,0,0,0.39717404,-11.730032,-29.309094)"><rect
         style="fill:#bbbbbb;fill-opacity:1;stroke:#000000;stroke-width:1.25889;stroke-linecap:round;stroke-linejoin:round;stroke-dasharray:none;stroke-opacity:1"
         id="rect356"
         width="22.37842"
         height="8.7977982"
         x="34.157791"
         y="84.427795"
         ry="1.5770123"
         transform="rotate(-8.4477669)"
         inkscape:label="trigLeftTop" /><rect
         style="fill:#bbbbbb;fill-opacity:1;stroke:#000000;stroke-width:1.25889;stroke-linecap:round;stroke-linejoin:round;stroke-dasharray:none;stroke-opacity:1"
         id="rect358"
         width="22.37842"
         height="8.7977982"
         x="-174.12567"
         y="53.493717"
         ry="1.5770123"
         transform="matrix(-0.9891502,-0.14690772,-0.14690772,0.9891502,0,0)"
         inkscape:label="trigRightTop" /></g><rect
       style="fill:#bbbbbb;fill-opacity:1;stroke:#000000;stroke-width:0.5;stroke-linecap:round;stroke-linejoin:round;stroke-opacity:1;stroke-dasharray:none"
       id="rect360"
       width="1.289933"
       height="2.877058"
       x="13.115324"
       y="9.3192806"
       ry="0.62634838"
       transform="rotate(-14.305638)"
       inkscape:label="btnShare" /><rect
       style="fill:#bbbbbb;fill-opacity:1;stroke:#000000;stroke-width:0.5;stroke-linecap:round;stroke-linejoin:round;stroke-opacity:1;stroke-dasharray:none"
       id="rect362"
       width="1.289933"
       height="2.877058"
       x="-44.862125"
       y="-5.5691442"
       ry="0.62634838"
       transform="matrix(-0.96899142,-0.24709437,-0.24709437,0.96899142,0,0)"
       inkscape:label="btnOptions" /><g
       id="g950"
       inkscape:label="buttonsRight"
       style="fill:#bbbbbb;fill-opacity:1;stroke:#000000;stroke-opacity:1;stroke-width:1.25889396;stroke-dasharray:none"
       transform="matrix(0.39717404,0,0,0.39717404,-11.730032,-29.838261)"><ellipse
         style="fill:#bbbbbb;fill-opacity:1;stroke:#000000;stroke-width:1.25889396;stroke-linecap:round;stroke-linejoin:round;stroke-opacity:1;stroke-dasharray:none"
         id="path416"
         cx="151.53934"
         cy="97.852776"
         rx="4.818573"
         ry="4.7821937"
         inkscape:label="btnTriangle" /><ellipse
         style="fill:#bbbbbb;fill-opacity:1;stroke:#000000;stroke-width:1.25889396;stroke-linecap:round;stroke-linejoin:round;stroke-opacity:1;stroke-dasharray:none"
         id="ellipse418"
         cx="162.74312"
         cy="108.91161"
         rx="4.818573"
         ry="4.7821937"
         inkscape:label="btnCircle" /><ellipse
         style="fill:#bbbbbb;fill-opacity:1;stroke:#000000;stroke-width:1.25889396;stroke-linecap:round;stroke-linejoin:round;stroke-opacity:1;stroke-dasharray:none"
         id="ellipse420"
         cx="151.53934"
         cy="119.9788"
         rx="4.818573"
         ry="4.7821937"
         inkscape:label="btnCross" /><ellipse
         style="fill:#bbbbbb;fill-opacity:1;stroke:#000000;stroke-width:1.25889396;stroke-linecap:round;stroke-linejoin:round;stroke-opacity:1;stroke-dasharray:none"
         id="ellipse422"
         cx="140.24727"
         cy="109.2572"
         rx="4.818573"
         ry="4.7821937"
         inkscape:label="btnSquare" /></g><ellipse
       style="fill:#bbbbbb;fill-opacity:1;stroke:#000000;stroke-width:0.5;stroke-linecap:round;stroke-linejoin:round;stroke-opacity:1;stroke-dasharray:none"
       id="ellipse424"
       cx="39.544956"
       cy="21.651285"
       rx="3.2350321"
       ry="3.2185302"
       inkscape:label="stickRight" /><ellipse
       style="fill:#bbbbbb;fill-opacity:1;stroke:#000000;stroke-width:0.5;stroke-linecap:round;stroke-linejoin:round;stroke-opacity:1;stroke-dasharray:none"
       id="ellipse426"
       cx="20.696341"
       cy="21.657787"
       rx="3.2350321"
       ry="3.2185302"
       inkscape:label="stickLeft" /><g
       id="g677"
       inkscape:label="pad"
       style="fill:#bbbbbb;fill-opacity:1;stroke:#000000;stroke-width:1.25889;stroke-dasharray:none;stroke-opacity:1"
       transform="matrix(0.39717404,0,0,0.39717404,-11.730032,-30.962234)"><path
         id="rect428"
         style="fill:#bbbbbb;fill-opacity:1;stroke:#000000;stroke-width:1.25889;stroke-linecap:round;stroke-linejoin:round;stroke-dasharray:none;stroke-opacity:1"
         d="m 55.787855,98.886195 h 5.550309 c 0.865537,0 1.562341,0.832184 1.562341,1.865885 v 4.68433 c -4.217699,6.52167 -4.060037,6.49493 -8.67499,0 v -4.68433 c 0,-1.033701 0.696804,-1.865885 1.56234,-1.865885 z"
         sodipodi:nodetypes="sssccss"
         inkscape:label="padUp" /><path
         id="path598"
         style="fill:#bbbbbb;fill-opacity:1;stroke:#000000;stroke-width:1.25889;stroke-linecap:round;stroke-linejoin:round;stroke-dasharray:none;stroke-opacity:1"
         d="m 55.787855,124.60523 h 5.550309 c 0.865537,0 1.562341,-0.83218 1.562341,-1.86588 v -4.68433 c -4.217699,-6.52171 -4.060037,-6.49497 -8.67499,0 v 4.68433 c 0,1.0337 0.696804,1.86588 1.56234,1.86588 z"
         sodipodi:nodetypes="sssccss"
         inkscape:label="padDown" /><path
         id="path606"
         style="fill:#bbbbbb;fill-opacity:1;stroke:#000000;stroke-width:1.25889;stroke-linecap:round;stroke-linejoin:round;stroke-dasharray:none;stroke-opacity:1"
         d="m 72.754852,108.97056 v 5.5503 c 0,0.86554 -0.832184,1.56234 -1.865885,1.56234 h -4.684328 c -6.52167,-4.21769 -6.49493,-4.06003 0,-8.67498 h 4.684328 c 1.033701,0 1.865885,0.6968 1.865885,1.56234 z"
         sodipodi:nodetypes="sssccss"
         inkscape:label="padLeft" /><path
         id="path608"
         style="fill:#bbbbbb;fill-opacity:1;stroke:#000000;stroke-width:1.25889;stroke-linecap:round;stroke-linejoin:round;stroke-dasharray:none;stroke-opacity:1"
         d="m 44.371161,108.97056 v 5.5503 c 0,0.86554 0.83218,1.56234 1.86588,1.56234 h 4.68433 c 6.52171,-4.21769 6.49497,-4.06003 0,-8.67498 h -4.68433 c -1.0337,0 -1.86588,0.6968 -1.86588,1.56234 z"
         sodipodi:nodetypes="sssccss"
         inkscape:label="padRight" /></g></g></svg>
