<?xml version="1.0" encoding="UTF-8" standalone="no"?>
<!-- Created with Inkscape (http://www.inkscape.org/) -->

<svg
   width="65mm"
   height="60mm"
   viewBox="0 0 65 60"
   version="1.1"
   id="svg11420"
   xml:space="preserve"
   inkscape:version="1.2.2 (b0a8486541, 2022-12-01)"
   sodipodi:docname="ninpad.svg"
   xmlns:inkscape="http://www.inkscape.org/namespaces/inkscape"
   xmlns:sodipodi="http://sodipodi.sourceforge.net/DTD/sodipodi-0.dtd"
   xmlns="http://www.w3.org/2000/svg"
   xmlns:svg="http://www.w3.org/2000/svg"><sodipodi:namedview
     id="namedview11422"
     pagecolor="#ffffff"
     bordercolor="#000000"
     borderopacity="0.25"
     inkscape:showpageshadow="2"
     inkscape:pageopacity="0.0"
     inkscape:pagecheckerboard="0"
     inkscape:deskcolor="#d1d1d1"
     inkscape:document-units="mm"
     showgrid="false"
     inkscape:zoom="0.71090067"
     inkscape:cx="440.28654"
     inkscape:cy="733.57646"
     inkscape:window-width="2494"
     inkscape:window-height="1403"
     inkscape:window-x="0"
     inkscape:window-y="0"
     inkscape:window-maximized="1"
     inkscape:current-layer="layer1" /><defs
     id="defs11417" /><g
     inkscape:label="Layer 1"
     inkscape:groupmode="layer"
     id="layer1"><g
       id="g12095"
       transform="matrix(0.56242425,0,0,0.56064382,-49.894151,-8.4153084)"><path
         id="path12064"
         style="fill:#d7d7d7;stroke:none;stroke-width:5;stroke-dasharray:none;stroke-opacity:1;fill-opacity:1"
         d="m 176.93937,119.34651 c 10.55251,-0.92171 19.7488,-8.06689 23.37121,-18.15858 1.53969,-4.289419 1.52093,-3.851729 1.43816,-33.571439 -0.0754,-27.073604 -0.0792,-27.244871 -0.65278,-29.263777 -1.4293,-5.031073 -3.95828,-9.400931 -7.40093,-12.788195 -4.68956,-4.614096 -10.51257,-7.245569 -17.27326,-7.805938 -3.87595,-0.321264 -20.97011,-0.327872 -22.34648,-0.0086 -0.6129,0.142155 -1.42325,0.627574 -1.98439,1.188707 l -0.94846,0.948434 -0.0683,48.372119 -0.0682,48.372109 0.59741,0.87781 c 0.32859,0.4828 0.93338,1.12689 1.344,1.43131 0.7256,0.53793 1.03811,0.55451 11.11254,0.58956 5.70126,0.0198 11.49702,-0.0627 12.87947,-0.18348 z m -60.89041,0 c -10.55251,-0.92171 -19.748802,-8.06689 -23.371208,-18.15858 -1.539685,-4.289419 -1.520934,-3.851729 -1.438163,-33.571439 0.0754,-27.073604 0.07922,-27.244871 0.652783,-29.263777 1.4293,-5.031073 3.958276,-9.400931 7.40093,-12.788195 4.689558,-4.614096 10.512568,-7.245569 17.273258,-7.805938 3.87595,-0.321264 20.97009,-0.327872 22.34645,-0.0086 0.6129,0.142155 1.42324,0.627574 1.98438,1.188707 l 0.94845,0.948434 0.0683,48.372119 0.0682,48.372109 -0.59741,0.87781 c -0.32858,0.4828 -0.93337,1.12689 -1.34399,1.43131 -0.72559,0.53793 -1.0381,0.55451 -11.1125,0.58956 -5.70126,0.0198 -11.49702,-0.0627 -12.87947,-0.18348 z" /><g
         id="g950"
         inkscape:label="buttonsRight"
         style="fill:#bbbbbb;fill-opacity:1;stroke:#000000;stroke-width:1.13249435;stroke-dasharray:none;stroke-opacity:1"
         transform="matrix(0.78624595,0,0,0.78624595,56.308826,-38.535685)"><ellipse
           style="fill:#bbbbbb;fill-opacity:1;stroke:#000000;stroke-width:1.13249435;stroke-linecap:round;stroke-linejoin:round;stroke-dasharray:none;stroke-opacity:1"
           id="path416"
           cx="151.53934"
           cy="97.852776"
           rx="4.818573"
           ry="4.7821937"
           inkscape:label="btnTriangle" /><ellipse
           style="fill:#bbbbbb;fill-opacity:1;stroke:#000000;stroke-width:1.13249435;stroke-linecap:round;stroke-linejoin:round;stroke-dasharray:none;stroke-opacity:1"
           id="ellipse418"
           cx="162.74312"
           cy="108.91161"
           rx="4.818573"
           ry="4.7821937"
           inkscape:label="btnCircle" /><ellipse
           style="fill:#bbbbbb;fill-opacity:1;stroke:#000000;stroke-width:1.13249435;stroke-linecap:round;stroke-linejoin:round;stroke-dasharray:none;stroke-opacity:1"
           id="ellipse420"
           cx="151.53934"
           cy="119.9788"
           rx="4.818573"
           ry="4.7821937"
           inkscape:label="btnCross" /><ellipse
           style="fill:#bbbbbb;fill-opacity:1;stroke:#000000;stroke-width:1.13249435;stroke-linecap:round;stroke-linejoin:round;stroke-dasharray:none;stroke-opacity:1"
           id="ellipse422"
           cx="140.24727"
           cy="109.2572"
           rx="4.818573"
           ry="4.7821937"
           inkscape:label="btnSquare" /></g><ellipse
         style="fill:#bbbbbb;fill-opacity:1;stroke:#000000;stroke-width:0.8904191;stroke-linecap:round;stroke-linejoin:round;stroke-dasharray:none;stroke-opacity:1"
         id="ellipse424"
         cx="175.25328"
         cy="78.65847"
         rx="11.601178"
         ry="11.601177"
         inkscape:label="stickRight" /><ellipse
         style="fill:#bbbbbb;fill-opacity:1;stroke:#000000;stroke-width:0.8904191;stroke-linecap:round;stroke-linejoin:round;stroke-dasharray:none;stroke-opacity:1"
         id="ellipse426"
         cx="116.90108"
         cy="46.926876"
         rx="11.601177"
         ry="11.601175"
         inkscape:label="stickLeft" /><g
         id="g677"
         inkscape:label="pad"
         style="fill:#bbbbbb;fill-opacity:1;stroke:#000000;stroke-width:1.12094322;stroke-dasharray:none;stroke-opacity:1"
         transform="matrix(0.79434808,0,0,0.79434808,70.084091,-10.439251)"><path
           id="rect428"
           style="fill:#bbbbbb;fill-opacity:1;stroke:#000000;stroke-width:1.12094322;stroke-linecap:round;stroke-linejoin:round;stroke-dasharray:none;stroke-opacity:1"
           d="m 55.787855,98.886195 h 5.550309 c 0.865537,0 1.562341,0.832184 1.562341,1.865885 v 4.68433 c -4.217699,6.52167 -4.060037,6.49493 -8.67499,0 v -4.68433 c 0,-1.033701 0.696804,-1.865885 1.56234,-1.865885 z"
           sodipodi:nodetypes="sssccss"
           inkscape:label="padUp" /><path
           id="path598"
           style="fill:#bbbbbb;fill-opacity:1;stroke:#000000;stroke-width:1.12094322;stroke-linecap:round;stroke-linejoin:round;stroke-dasharray:none;stroke-opacity:1"
           d="m 55.787855,124.60523 h 5.550309 c 0.865537,0 1.562341,-0.83218 1.562341,-1.86588 v -4.68433 c -4.217699,-6.52171 -4.060037,-6.49497 -8.67499,0 v 4.68433 c 0,1.0337 0.696804,1.86588 1.56234,1.86588 z"
           sodipodi:nodetypes="sssccss"
           inkscape:label="padDown" /><path
           id="path606"
           style="fill:#bbbbbb;fill-opacity:1;stroke:#000000;stroke-width:1.12094322;stroke-linecap:round;stroke-linejoin:round;stroke-dasharray:none;stroke-opacity:1"
           d="m 72.754852,108.97056 v 5.5503 c 0,0.86554 -0.832184,1.56234 -1.865885,1.56234 h -4.684328 c -6.52167,-4.21769 -6.49493,-4.06003 0,-8.67498 h 4.684328 c 1.033701,0 1.865885,0.6968 1.865885,1.56234 z"
           sodipodi:nodetypes="sssccss"
           inkscape:label="padLeft" /><path
           id="path608"
           style="fill:#bbbbbb;fill-opacity:1;stroke:#000000;stroke-width:1.12094322;stroke-linecap:round;stroke-linejoin:round;stroke-dasharray:none;stroke-opacity:1"
           d="m 44.371161,108.97056 v 5.5503 c 0,0.86554 0.83218,1.56234 1.86588,1.56234 h 4.68433 c 6.52171,-4.21769 6.49497,-4.06003 0,-8.67498 h -4.68433 c -1.0337,0 -1.86588,0.6968 -1.86588,1.56234 z"
           sodipodi:nodetypes="sssccss"
           inkscape:label="padRight" /></g></g></g></svg>
